<?xml version="1.0" encoding="iso-8859-1"?>
<!-- Uploaded to: SVG Repo, www.svgrepo.com, Generator: SVG Repo Mixer Tools -->
<svg fill="#000000" height="800px" width="800px" version="1.1" id="Layer_1" xmlns="http://www.w3.org/2000/svg" xmlns:xlink="http://www.w3.org/1999/xlink" 
	 viewBox="0 0 512 512" xml:space="preserve">
<g>
	<g>
		<path d="M0,0v512h512V0H0z M192.927,33.391h126.145v126.145H192.927V33.391z M192.927,192.927h126.145v126.146H192.927V192.927z
			 M159.536,478.609H33.391V352.464h126.145V478.609z M159.536,319.072H33.391V192.927h126.145V319.072z M159.536,159.536H33.391
			V33.391h126.145V159.536z M192.927,478.609V352.464h126.145v126.145H192.927z M478.609,478.609H352.464V352.464h126.145V478.609z
			 M478.609,319.073H352.464V192.927h126.145V319.073z M478.609,159.536H352.464V33.391h126.145V159.536z"/>
	</g>
</g>
</svg>